<?xml version="1.0" encoding="utf-8"?>
<!-- Generator: Adobe Illustrator 22.0.1, SVG Export Plug-In . SVG Version: 6.00 Build 0)  -->
<svg version="1.1" id="Capa_1" xmlns="http://www.w3.org/2000/svg" xmlns:xlink="http://www.w3.org/1999/xlink" x="0px" y="0px"
	 viewBox="0 0 360.1 360.1" style="enable-background:new 0 0 360.1 360.1;" xml:space="preserve">
<style type="text/css">
	.st0{fill:url(#SVGID_1_);}
	.st1{fill:url(#SVGID_2_);stroke:#000000;stroke-width:0.118;stroke-miterlimit:10;}
</style>
<radialGradient id="SVGID_1_" cx="180.1312" cy="182.1" r="160.3123" gradientTransform="matrix(1 0 0 -1 0 362)" gradientUnits="userSpaceOnUse">
	<stop  offset="0" style="stop-color:#FFA5A5"/>
	<stop  offset="1" style="stop-color:#F86565"/>
</radialGradient>
<path class="st0" d="M358.8,130.8c-0.7-0.6-1.4-0.9-2.3-0.9c-3.1,0-6.4,4.4-9.3,8.2c-1.1,1.5-2.5,3.4-3.3,4c-0.1-1.5,1-5.6,1.9-8.8
	c2.1-7.9,4.3-16.1,0.7-18c-0.4-0.2-0.8-0.3-1.2-0.3c-2.5,0-4.5,3.8-7.5,10c-2.3,4.9-5.2,10.9-7.6,10.9c-0.2,0-0.3,0-0.5-0.1
	c-0.4-0.8-0.4-4.2-0.4-6.7c0.1-6.6,0.2-14.1-4-14.7c-0.1,0-0.3,0-0.4,0c-3.6,0-5.7,6.8-8,14c-1.1,3.5-2.7,8.8-3.7,9.2
	c-1.3-0.3-3.8-4-5.8-7.1c-3.3-5-6.5-9.7-9.5-9.4c-3.1,0.3-3,4.6-3,9.3c0,3.8,0.1,8.5-1.8,9.6c-0.2,0.1-0.4,0.1-0.6,0.1
	c-2.1,0-5.6-3.8-8.4-6.8c-3.3-3.6-5.3-5.7-7.2-5.7c-0.4,0-0.9,0.1-1.2,0.4c-2,1.5-1.9,6-1.8,10.8c0.1,2.4,0.1,6-0.3,6.7
	c-0.9-0.1-3.5-1.9-5.8-3.4c-5.1-3.4-11.5-7.6-16.6-7.6c-0.8,0-1.6,0.1-2.4,0.4c-5.6,1.8-6.6,4.4-7.4,6.2c-0.4,0.9-0.6,1.3-1.1,1.6
	c-0.6,0.3-1.7,0.2-2.8,0c-0.8-0.1-1.5-0.2-2.4-0.2c-1.8,0-3.4,0.6-4.6,1.9c-1.3,1.3-2.5,2.9-3.6,4.4c-1.7,2.2-3.3,4.4-4.8,4.9
	c-0.8,0.3-2.4,2-7,6.9c-10.1,10.7-31.1,33-41.8,33c-2,0-3.5-0.8-4.6-2.5c-1.8-2.7-4.5-7.8-7.8-14.1c-10.7-20.1-26.9-50.4-40.6-57.5
	C84,100.4,52.9,70.2,36.1,54c-9.1-8.9-12.3-11.9-14-11.9c-0.5,0-0.9,0.2-1.2,0.6c-0.5,0.7-0.3,1.9,0.6,4.2
	c2.9,7.1,9.6,16.8,14.9,24.6C39.6,76,43.1,81,44,83.1c-2.5-1.2-7.4-6.3-11.3-10.5c-7-7.4-11.5-11.9-14.4-11.9
	c-0.6,0-1.1,0.2-1.5,0.5c-2.3,1.7,1,6.3,6.9,14.2c2.4,3.2,5.9,7.8,6.3,9.4c-1.3-0.3-4.1-2.5-6.3-4.3c-3.9-3.1-7.9-6.2-10.8-6.2
	c-0.6,0-1.1,0.1-1.5,0.3c-0.7,0.3-1.1,0.9-1.3,1.6c-0.5,2.1,1.7,5.2,5.2,9.6c1.5,1.9,3.7,4.8,3.9,5.8c-0.1,0-0.3,0-0.5,0
	c-1.6,0-3.8-1.2-6.1-2.4c-2.4-1.3-4.7-2.5-6.6-2.5c-0.6,0-1.2,0.1-1.7,0.4c-2.2,1.2-0.2,5.1,1.9,9.2c0.6,1.1,1.3,2.6,1.6,3.3
	c-0.5,0.1-1.3,0.1-1.9,0.1c-1.9,0-4,0-5.1,1.1c-0.5,0.5-0.7,1.1-0.7,1.8c0,2.7,42.2,93,91.8,127.7c6.6,4.7,9.2,13,11.7,21
	c0.9,2.9,1.8,5.7,2.8,8.2c0.4,0.9,0.4,1.7,0,2.4c-1.6,3.1-9.7,5.2-18.2,7.4c-4.9,1.3-10,2.6-15,4.3c-61.7,7.6-61.7,11-61.7,12.7
	c0,3.3,2.2,4.9,3.8,6.1s1.9,1.5,1.6,2.2c-0.4,0.9-1.3,1.9-2.2,2.9c-2.1,2.2-4.6,5-3.1,9.1c0.6,1.5,2.4,2.2,5.6,2.2
	c5.5,0,14.5-2.1,21.2-3.9c-14.9,8.5-14.9,10-14.9,10.6c0,0.8,0,2.2,8.5,2.2s22.1-1.5,32.1-5.9c3.1-1.3,5.7-2.6,8.3-3.9
	c2.4-1.2,4.7-2.3,7-3.3c26.1,1.4,66.3,3,94.1,3c15.6,0,25.4-0.5,29.2-1.6c5.1-1.4,10.9-3.6,17-6c11.3-4.4,23-8.9,32.1-8.9
	c1.9,0,3.6,0.2,5,0.6c13.3,3.5,18.4,14,18.4,14.1l0.2,0.4l0.5,0.1c0.1,0,0.5,0.1,1.2,0.1l0,0c1.9,0,6.6-0.9,8.8-9.3
	c1.3-4.9-1.2-8.5-2.2-9.7c0.2-2.7,0.8-15.9-10.3-24.7c-6.7-5.3-13.4-7.8-17.8-9.4c-2.1-0.8-5-1.8-4.9-2.4
	c0.5-2.9,28.6-60.4,68.7-73.2c31-9.9,38.5-29.3,40.3-37.2C360.5,136.4,360.3,132.1,358.8,130.8z"/>
<radialGradient id="SVGID_2_" cx="271.9502" cy="232.2297" r="37.938" gradientTransform="matrix(0.9722 0.2341 -0.2341 0.9722 56.4416 -52.5386)" gradientUnits="userSpaceOnUse">
	<stop  offset="4.108136e-07" style="stop-color:#FFFF83"/>
	<stop  offset="1" style="stop-color:#FFDB2C"/>
</radialGradient>
<path class="st1" d="M273.5,205.5c0.3,0.1,0.7,0.2,1,0.2c0.1,0,0.2,0.1,0.3,0.1c3.4,1.3,5.1,5.1,3.8,8.6c-1,2.6-3.6,4.3-6.3,4.2
	c-0.4,0-0.7-0.1-1-0.1c0.1,0.4,0.2,0.7,0.3,1.1c0.2,1.3,0.4,2.6,0.5,3.9c0.4,4.8,0.5,9.6,0.5,14.3c0,1.1,0,2.1,0,3.2
	c0.1-0.1,0.1-0.2,0.2-0.2c0.9-1.3,1.8-2.6,2.8-3.9c2.2-3,4.6-5.8,7.4-8.2c1.3-1.2,2.7-2.4,4.3-3.3c0,0,0,0,0.1-0.1
	c-3-1.9-3.9-5.6-2.4-8.6c1.5-2.9,4.9-4.4,8.2-3.1c3,1.2,4.7,4.3,4.1,7.4c-0.3,1.6-1.1,3-2.5,4c-1.9,1.4-3.9,1.7-6.1,1
	c-1.7,7.4-3,14.9-3.7,22.6c0.1-0.1,0.1-0.1,0.2-0.2c1.5-1.7,3-3.3,4.6-4.8c2.2-2.1,4.6-4,7.3-5.5c1.3-0.7,2.6-1.4,4.1-1.7
	c0,0,0,0,0,0c-2.8-2.3-3.2-6.2-1.2-9c1.9-2.6,5.5-3.5,8.4-2c2.8,1.5,4.2,4.7,3.3,7.8c-0.5,1.6-1.4,2.8-2.9,3.7
	c-2.1,1.3-4.3,1.3-6.5,0.2c-0.1,0.2-0.1,0.4-0.2,0.6c-0.3,0.8-0.6,1.7-0.9,2.5c-0.4,1.3-0.8,2.6-1.2,3.9c-0.8,2.7-1.3,5.4-1.8,8.2
	c-0.3,1.7-0.5,3.3-0.8,5c-0.2,1.6-0.4,3.2-0.6,4.9c-0.2,1.5-0.3,3.1-0.4,4.6c-0.1,1-0.3,1.9-0.3,2.9c-0.1,0.6-0.3,1-0.8,1.3
	c-0.6,0.4-1.3,0.7-2.1,0.8c-1.7,0.4-3.4,0.5-5.1,0.5c-3.9,0-7.7-0.3-11.6-0.9c-1.8-0.2-3.5-0.5-5.3-0.8c-2.3-0.4-4.5-0.8-6.8-1.3
	c-4.9-1.2-9.8-2.2-14.7-3.7c-1.7-0.5-3.3-1-5-1.6c-1.8-0.6-3.6-1.3-5.4-1.9c-2.3-0.8-4.5-1.8-6.6-2.9c-1.6-0.8-3.2-1.7-4.6-2.7
	c-0.7-0.5-1.4-1.1-1.9-1.9c-0.4-0.6-0.5-1.1-0.3-1.8c0.3-0.8,0.5-1.6,0.8-2.3c0.7-1.7,1.4-3.4,2-5.1c0.8-2.1,1.6-4.3,2.3-6.5
	c0.7-2.1,1.3-4.3,1.9-6.4c1.1-3.8,1.7-7.8,2.2-11.7c-0.2,0-0.5,0-0.8,0c-0.3,0-0.6,0-0.8-0.1c-3.2-0.4-5.7-3.1-5.8-6.3
	c0-0.4,0-0.9,0-1.3c0.1-0.3,0.2-0.7,0.2-1c0.1-0.3,0.2-0.6,0.3-0.8c1.5-3.1,4.9-4.5,8.2-3.4c2.9,1,4.8,4.1,4.3,7.2
	c-0.5,2.7-2,4.5-4.7,5.4c-0.1,0-0.1,0-0.2,0.1c1,0.6,1.7,1.4,2.4,2.3c1.3,1.7,2.4,3.7,3.3,5.6c1.5,3.3,2.7,6.8,3.5,10.3
	c0,0.1,0,0.2,0.1,0.3c0.5-1.3,1-2.6,1.5-3.9c0.7-1.9,1.4-3.9,2-5.8c0.7-2,1.3-4.1,1.9-6.1c0.5-1.9,1-3.7,1.5-5.6
	c0-0.2,0.1-0.3,0.2-0.5c-1.2,0-2.4-0.4-3.4-1c-1-0.7-1.8-1.5-2.4-2.6c-0.5-1.1-0.8-2.3-0.7-3.5c0.3-3.3,2.9-5.8,6.1-6.1
	c3.2-0.3,6.2,1.9,7,5.1c0.4,1.6,0.2,3.1-0.6,4.6c-1,1.9-2.6,3-4.6,3.4c0.3,0.5,0.6,1.1,0.9,1.7c1.1,2,1.8,4.1,2.5,6.2
	c1.2,3.8,1.9,7.6,2.5,11.5c0,0.1,0,0.1,0,0.3c0.1-0.1,0.1-0.2,0.2-0.3c2.1-4,4.2-8,6.5-11.9c1.3-2.2,2.5-4.3,4.2-6.2
	c-0.2-0.1-0.4-0.1-0.6-0.2c-3.4-1.4-5-5.1-3.7-8.5c0.9-2.4,3.3-4.1,5.9-4.2C272.6,205.5,273.1,205.5,273.5,205.5z"/>
</svg>
