<?xml version="1.0" encoding="utf-8"?>
<!-- Generator: Adobe Illustrator 22.0.1, SVG Export Plug-In . SVG Version: 6.00 Build 0)  -->
<svg version="1.1" id="Capa_1" xmlns="http://www.w3.org/2000/svg" xmlns:xlink="http://www.w3.org/1999/xlink" x="0px" y="0px"
	 viewBox="0 0 360.1 360.1" style="enable-background:new 0 0 360.1 360.1;" xml:space="preserve">
<style type="text/css">
	.st0{fill:url(#SVGID_1_);}
</style>
<radialGradient id="SVGID_1_" cx="180.042" cy="180.0405" r="160.3867" gradientUnits="userSpaceOnUse">
	<stop  offset="0" style="stop-color:#FFA5A5"/>
	<stop  offset="1" style="stop-color:#F86565"/>
</radialGradient>
<path class="st0" d="M358.8,130.8c-0.7-0.6-1.4-0.9-2.3-0.9c-3.1,0-6.4,4.4-9.3,8.2c-1.1,1.5-2.5,3.4-3.3,4c-0.1-1.5,1-5.6,1.9-8.8
	c2.1-7.9,4.3-16.1,0.7-18c-0.4-0.2-0.8-0.3-1.2-0.3c-2.5,0-4.5,3.8-7.5,10c-2.3,4.9-5.2,10.9-7.6,10.9c-0.2,0-0.3,0-0.5-0.1
	c-0.4-0.8-0.4-4.2-0.4-6.7c0.1-6.6,0.2-14.1-4-14.7c-0.1,0-0.3,0-0.4,0c-3.6,0-5.7,6.8-8,14c-1.1,3.5-2.7,8.8-3.7,9.2
	c-1.3-0.3-3.8-4-5.8-7.1c-3.3-5-6.5-9.7-9.5-9.4c-3.1,0.3-3,4.6-3,9.3c0,3.8,0.1,8.5-1.8,9.6c-0.2,0.1-0.4,0.1-0.6,0.1
	c-2.1,0-5.6-3.8-8.4-6.8c-3.3-3.6-5.3-5.7-7.2-5.7c-0.4,0-0.9,0.1-1.2,0.4c-2,1.5-1.9,6-1.8,10.8c0.1,2.4,0.1,6-0.3,6.7
	c-0.9-0.1-3.5-1.9-5.8-3.4c-5.1-3.4-11.5-7.6-16.6-7.6c-0.8,0-1.6,0.1-2.4,0.4c-5.6,1.8-6.6,4.4-7.4,6.2c-0.4,0.9-0.6,1.3-1.1,1.6
	c-0.6,0.3-1.7,0.2-2.8,0c-0.8-0.1-1.5-0.2-2.4-0.2c-1.8,0-3.4,0.6-4.6,1.9c-1.3,1.3-2.5,2.9-3.6,4.4c-1.7,2.2-3.3,4.4-4.8,4.9
	c-0.8,0.3-2.4,2-7,6.9c-10.1,10.7-31.1,33-41.8,33c-2,0-3.5-0.8-4.6-2.5c-1.8-2.7-4.5-7.8-7.8-14.1c-10.7-20.1-26.9-50.4-40.6-57.5
	C84,100.4,52.9,70.2,36.1,54C27,45.1,23.8,42.1,22.1,42.1c-0.5,0-0.9,0.2-1.2,0.6c-0.5,0.7-0.3,1.9,0.6,4.2
	c2.9,7.1,9.6,16.8,14.9,24.6C39.6,76,43.1,81,44,83.1c-2.5-1.2-7.4-6.3-11.3-10.5c-7-7.4-11.5-11.9-14.4-11.9
	c-0.6,0-1.1,0.2-1.5,0.5c-2.3,1.7,1,6.3,6.9,14.2c2.4,3.2,5.9,7.8,6.3,9.4c-1.3-0.3-4.1-2.5-6.3-4.3c-3.9-3.1-7.9-6.2-10.8-6.2
	c-0.6,0-1.1,0.1-1.5,0.3c-0.7,0.3-1.1,0.9-1.3,1.6c-0.5,2.1,1.7,5.2,5.2,9.6c1.5,1.9,3.7,4.8,3.9,5.8c-0.1,0-0.3,0-0.5,0
	c-1.6,0-3.8-1.2-6.1-2.4c-2.4-1.3-4.7-2.5-6.6-2.5c-0.6,0-1.2,0.1-1.7,0.4c-2.2,1.2-0.2,5.1,1.9,9.2c0.6,1.1,1.3,2.6,1.6,3.3
	c-0.5,0.1-1.3,0.1-1.9,0.1c-1.9,0-4,0-5.1,1.1c-0.5,0.5-0.7,1.1-0.7,1.8c0,2.7,42.2,93,91.8,127.7c6.6,4.7,9.2,13,11.7,21
	c0.9,2.9,1.8,5.7,2.8,8.2c0.4,0.9,0.4,1.7,0,2.4c-1.6,3.1-9.7,5.2-18.2,7.4c-4.9,1.3-10,2.6-15,4.3c-61.7,7.6-61.7,11-61.7,12.7
	c0,3.3,2.2,4.9,3.8,6.1c1.6,1.2,1.9,1.5,1.6,2.2c-0.4,0.9-1.3,1.9-2.2,2.9c-2.1,2.2-4.6,5-3.1,9.1c0.6,1.5,2.4,2.2,5.6,2.2
	c5.5,0,14.5-2.1,21.2-3.9c-14.9,8.5-14.9,10-14.9,10.6c0,0.8,0,2.2,8.5,2.2c8.5,0,22.1-1.5,32.1-5.9c3.1-1.3,5.7-2.6,8.3-3.9
	c2.4-1.2,4.7-2.3,7-3.3c26.1,1.4,66.3,3,94.1,3c15.6,0,25.4-0.5,29.2-1.6c5.1-1.4,10.9-3.6,17-6c11.3-4.4,23-8.9,32.1-8.9
	c1.9,0,3.6,0.2,5,0.6c13.3,3.5,18.4,14,18.4,14.1l0.2,0.4l0.5,0.1c0.1,0,0.5,0.1,1.2,0.1l0,0c1.9,0,6.6-0.9,8.8-9.3
	c1.3-4.9-1.2-8.5-2.2-9.7c0.2-2.7,0.8-15.9-10.3-24.7c-6.7-5.3-13.4-7.8-17.8-9.4c-2.1-0.8-5-1.8-4.9-2.4
	c0.5-2.9,28.6-60.4,68.7-73.2c31-9.9,38.5-29.3,40.3-37.2C360.5,136.4,360.3,132.1,358.8,130.8z"/>
</svg>
