<?xml version="1.0" encoding="utf-8"?>
<!-- Generator: Adobe Illustrator 22.0.1, SVG Export Plug-In . SVG Version: 6.00 Build 0)  -->
<svg version="1.1" id="Capa_1" xmlns="http://www.w3.org/2000/svg" xmlns:xlink="http://www.w3.org/1999/xlink" x="0px" y="0px"
	 viewBox="0 0 236.6 236.6" style="enable-background:new 0 0 236.6 236.6;" xml:space="preserve">
<style type="text/css">
	.st0{fill:url(#SVGID_1_);}
</style>
<g>
	<g>
		<radialGradient id="SVGID_1_" cx="118.3101" cy="118.3099" r="100.4885" gradientUnits="userSpaceOnUse">
			<stop  offset="8.314084e-07" style="stop-color:#FFF0A5"/>
			<stop  offset="1" style="stop-color:#F8DE65"/>
		</radialGradient>
		<path class="st0" d="M197,225.5c-1.1-9.5-11.7-10.6-17.8-10c-6.5-24.6,16.2-61.2,17.6-69.8c1.4-9.3-6.7-63.5-7.5-90.9
			c-0.9-28.2-41.8-59.3-48.6-54.3c-6.8,7.5,9.7,17.6,1.1,26.2c-8.4,8.4-10.6,14-16.8,23.5c-16,24.3,27.3,24.6,27.3,24.6
			s-33.9,25.1-41.4,37.8c-6.9,11.7-9.9,24.7-18.2,35.7C73.5,173.3,77.8,217,77.8,217s-36.2-11.8-16.3-53.1
			C76.6,132.4,84.1,86,50,97.9c-13.2,4.6,2.9,14.3,5.7,17.4c9.3,10.4,1.4,27.9-4.2,38c-15,27.1-20.5,55.5,11.2,73
			c14.1,7.8,33.1,9.7,52.2,10l48.6,0.1C179.6,237.3,197.7,234.3,197,225.5z"/>
	</g>
</g>
</svg>
