<?xml version="1.0" encoding="utf-8"?>
<!-- Generator: Adobe Illustrator 22.0.1, SVG Export Plug-In . SVG Version: 6.00 Build 0)  -->
<svg version="1.1" id="Capa_1" xmlns="http://www.w3.org/2000/svg" xmlns:xlink="http://www.w3.org/1999/xlink" x="0px" y="0px"
	 viewBox="0 0 236.6 236.6" style="enable-background:new 0 0 236.6 236.6;" xml:space="preserve">
<style type="text/css">
	.st0{fill:url(#SVGID_1_);}
	.st1{fill:url(#SVGID_2_);stroke:#000000;stroke-width:0.1116;stroke-miterlimit:10;}
</style>
<g>
	<g>
		
			<radialGradient id="SVGID_1_" cx="105.5941" cy="100.6981" r="84.31" gradientTransform="matrix(1 0 0 -1 0 238)" gradientUnits="userSpaceOnUse">
			<stop  offset="8.314084e-07" style="stop-color:#FFF0A5"/>
			<stop  offset="1" style="stop-color:#F8DE65"/>
		</radialGradient>
		<path class="st0" d="M171.7,227.3c-0.9-8-9.8-8.9-14.9-8.4c-5.5-20.6,13.6-51.3,14.8-58.6c1.2-7.8-5.6-53.3-6.3-76.3
			c-0.8-23.7-35.1-49.8-40.8-45.6c-5.7,6.3,8.1,14.8,0.9,22c-7,7-8.9,11.7-14.1,19.7c-13.4,20.4,22.9,20.6,22.9,20.6
			s-28.4,21.1-34.7,31.7c-5.8,9.8-8.3,20.7-15.3,30c-16.1,21-12.5,57.6-12.5,57.6s-30.4-9.9-13.7-44.6c12.7-26.4,19-65.4-9.6-55.4
			c-11.1,3.9,2.4,12,4.8,14.6c7.8,8.7,1.2,23.4-3.5,31.9C37,189.4,32.4,213.3,59,228c11.8,6.5,27.8,8.1,43.8,8.4l40.8,0.1
			C157.1,237.2,172.2,234.7,171.7,227.3z"/>
	</g>
</g>
<radialGradient id="SVGID_2_" cx="123.3173" cy="25.8204" r="35.8811" gradientTransform="matrix(0.9662 -0.2578 0.2578 0.9662 -1.4842 47.9761)" gradientUnits="userSpaceOnUse">
	<stop  offset="4.108136e-07" style="stop-color:#FFFF83"/>
	<stop  offset="1" style="stop-color:#FFDB2C"/>
</radialGradient>
<path class="st1" d="M116,11.9c0.3-0.1,0.6-0.2,0.9-0.3c0.1,0,0.2,0,0.3,0c3.5-0.4,6.6,2,7,5.4c0.3,2.6-1,5.2-3.4,6.4
	c-0.3,0.1-0.6,0.3-0.9,0.4c0.2,0.3,0.5,0.5,0.7,0.8c0.7,1,1.5,2,2.2,3c2.5,3.8,4.7,7.7,6.9,11.7c0.5,0.9,1,1.8,1.5,2.7
	c0-0.1,0-0.2,0-0.3c0.2-1.5,0.3-3,0.6-4.5c0.5-3.5,1.3-6.9,2.4-10.2c0.6-1.6,1.2-3.2,2.1-4.7c0,0,0,0,0-0.1
	c-3.3-0.2-5.8-2.9-5.9-6.1c-0.1-3.1,2.1-5.9,5.4-6.3c3.1-0.4,5.9,1.5,6.8,4.3c0.5,1.5,0.4,3-0.3,4.4c-0.9,2-2.5,3.2-4.6,3.6
	c1.9,7,4.2,13.8,7.1,20.4c0-0.1,0-0.2,0.1-0.2c0.5-2.1,1-4.1,1.7-6.1c0.9-2.7,2-5.4,3.5-7.9c0.7-1.2,1.6-2.3,2.7-3.2c0,0,0,0,0,0
	c-3.4-0.7-5.4-3.8-5-7c0.4-3,3-5.4,6.1-5.4c3-0.1,5.6,2,6.2,5c0.3,1.5,0.1,3-0.7,4.4c-1.2,2-3,3-5.3,3.1c0,0.2,0.1,0.4,0.1,0.6
	c0.1,0.8,0.2,1.7,0.4,2.5c0.2,1.3,0.5,2.5,0.8,3.8c0.6,2.6,1.3,5.1,2.2,7.6c0.5,1.5,1,3,1.6,4.5c0.5,1.4,1.1,2.9,1.7,4.3
	c0.6,1.3,1.2,2.7,1.7,4c0.4,0.8,0.7,1.7,1,2.6c0.2,0.5,0.2,1,0,1.4c-0.3,0.6-0.8,1.1-1.3,1.6c-1.2,1.1-2.6,1.9-4,2.7
	c-3.2,1.8-6.6,3.2-10,4.5c-1.6,0.6-3.1,1.2-4.7,1.7c-2.1,0.7-4.1,1.4-6.2,2c-4.6,1.3-9.2,2.6-13.9,3.5c-1.6,0.3-3.2,0.7-4.8,0.9
	c-1.8,0.3-3.6,0.6-5.3,0.8c-2.3,0.3-4.5,0.5-6.8,0.6c-1.7,0.1-3.4,0-5-0.2c-0.8-0.1-1.7-0.3-2.4-0.7c-0.5-0.3-0.9-0.7-1-1.4
	c-0.1-0.8-0.3-1.5-0.4-2.3c-0.2-1.7-0.4-3.4-0.6-5.1c-0.3-2.2-0.6-4.3-1-6.4c-0.4-2.1-0.8-4.2-1.3-6.2c-0.8-3.7-2.1-7.2-3.5-10.7
	c-0.2,0.1-0.4,0.3-0.6,0.4c-0.2,0.1-0.5,0.2-0.7,0.3c-2.9,1.1-6.1,0-7.7-2.6c-0.2-0.3-0.4-0.7-0.5-1.1c-0.1-0.3-0.2-0.6-0.3-0.9
	c0-0.3-0.1-0.6-0.1-0.8c-0.1-3.2,2.1-6,5.3-6.5c2.9-0.5,5.9,1.2,6.8,4c0.8,2.5,0.3,4.7-1.5,6.5c0,0-0.1,0.1-0.1,0.1
	c1.1,0.1,2,0.4,3,0.8c1.9,0.8,3.6,2,5.3,3.2c2.8,2.1,5.3,4.4,7.6,7c0.1,0.1,0.1,0.1,0.2,0.2c-0.2-1.3-0.3-2.6-0.5-3.9
	c-0.3-1.9-0.6-3.9-0.9-5.8c-0.4-2-0.8-4-1.2-5.9c-0.4-1.8-0.8-3.6-1.2-5.3c0-0.2-0.1-0.3-0.1-0.5c-1.1,0.5-2.1,0.8-3.3,0.7
	c-1.1-0.1-2.2-0.5-3.1-1.1c-0.9-0.7-1.7-1.5-2.1-2.6c-1.3-2.9-0.2-6.1,2.3-7.8c2.6-1.7,6-1.2,8.1,1.1c1,1.2,1.5,2.5,1.5,4.1
	c0,2-0.8,3.7-2.3,4.9c0.5,0.3,1,0.6,1.5,1c1.8,1.2,3.3,2.6,4.8,4c2.7,2.6,5,5.5,7.3,8.5c0,0.1,0.1,0.1,0.2,0.2c0-0.1,0-0.2,0-0.3
	c-0.1-4.3-0.2-8.6,0-12.8c0.1-2.4,0.1-4.7,0.7-7c-0.2,0-0.4,0.1-0.6,0.1c-3.4,0.4-6.4-2-6.9-5.4c-0.3-2.4,0.9-4.9,3-6.1
	C115.3,12.2,115.6,12.1,116,11.9z"/>
</svg>
