<?xml version="1.0" encoding="utf-8"?>
<!-- Generator: Adobe Illustrator 22.0.1, SVG Export Plug-In . SVG Version: 6.00 Build 0)  -->
<svg version="1.1" id="Capa_1" xmlns="http://www.w3.org/2000/svg" xmlns:xlink="http://www.w3.org/1999/xlink" x="0px" y="0px"
	 viewBox="0 0 25.3 25.3" style="enable-background:new 0 0 25.3 25.3;" xml:space="preserve">
<style type="text/css">
	.st0{fill:url(#SVGID_1_);}
	.st1{fill:url(#SVGID_2_);stroke:#000000;stroke-width:9.009908e-03;stroke-miterlimit:10;}
</style>
<g>
	
		<radialGradient id="SVGID_1_" cx="11.4531" cy="14.1871" r="11.2843" gradientTransform="matrix(1 0 0 -1 0 28)" gradientUnits="userSpaceOnUse">
		<stop  offset="8.314084e-07" style="stop-color:#FFD9A5"/>
		<stop  offset="1" style="stop-color:#F8B965"/>
	</radialGradient>
	<path class="st0" d="M22.9,7.1c0.1-0.8-1-1.2-1.3-1.8c0.2-0.2,0.4-1.2,0.3-1.5c0-0.3-0.7,0.4-0.9,0.3c-0.2-0.2,0.1-0.9-0.2-1.3
		c-0.1-0.2-0.5,1.2-0.6,1.3c-0.2,0.1-0.5-0.4-0.7-0.8c-0.5-0.9-0.2,1-0.2,1.4c-1.3,0.2-2.1,1.1-2.4,2.2c-0.4,1.2-1.5,3.9-3.5,4.1
		c-2.4,0.1-5.2-2.2-6.4-3.5C6.2,6.5,5.7,4.5,4.5,4.7c-0.6,0.1-1,0.8-1.6,1c0,0-3.3,0.8-2.8,1.7C0.4,8,1.8,8.6,2.9,9.1
		C3,9.1,3,9.2,3,9.2c0,0.1-0.1,0.1-0.1,0.1c-1.1-0.2-2-0.2-1.1,0.6c0.3,0.2,1.1,0.6,1.9,1c0.1,0,0.1,0.1,0.1,0.1
		c0,0.1-0.1,0.1-0.1,0.1c-0.7-0.2-1.3-0.3-1.3,0C2.5,11.7,5,13.6,5,13.6c-0.3,0.4,1,1.8,1.2,1.9c-0.3-0.1-0.6,0-0.2,0.4
		c0.6,0.5,0.7,1.4,1.3,2c1.5,1.5,3.8,0.4,5.1,3c0.1,0.1,0.4,0.6,0.5,1.2c0.1,0.2,0.1,0.3,0,0.5c-0.1,0.2-0.2,0.3-0.4,0.3L11,23.1
		c-0.2,0.1-0.4,0.3-0.4,0.5c0,0.3,0.3,0.5,0.5,0.5l1.5-0.2c0.1,0,0.1,0,0.1,0.1c0,0.1,0,0.1,0,0.2l-0.1,0.2
		c-0.2,0.2-0.1,0.5,0.1,0.6C12.8,25,12.9,25,13,25c0.1,0,0.3-0.1,0.4-0.2l0.6-0.8c0.1-0.2,0.3-0.2,0.5-0.2l2.3,0.5
		c0.2,0.1,0.5-0.1,0.5-0.3c0.1-0.3-0.1-0.5-0.3-0.5l-2-0.6c-0.2-0.1-0.4-0.2-0.4-0.5c-0.1-0.4-0.1-0.8-0.2-1.2
		c0-0.3,0.1-0.5,0.4-0.5c1-0.3,1.5-1.5,2.3-2.4c0.3-0.4,0.7-0.6,1.2-0.7c2.6-0.5,3.5-3.3,3.8-6.2c0.2-1.7-0.6-2.4-1.1-3.7
		C21.5,7.4,22.1,6.6,22.9,7.1z M20,6.1c-0.2,0-0.4-0.2-0.4-0.4s0.2-0.4,0.4-0.4c0.2,0,0.4,0.2,0.4,0.4C20.4,5.9,20.2,6.1,20,6.1z"/>
</g>
<radialGradient id="SVGID_2_" cx="19.1442" cy="3.6708" r="2.8956" gradientTransform="matrix(0.9718 -0.2358 0.2358 0.9718 -3.001922e-02 3.5638)" gradientUnits="userSpaceOnUse">
	<stop  offset="4.108136e-07" style="stop-color:#FFFF83"/>
	<stop  offset="1" style="stop-color:#FFDB2C"/>
</radialGradient>
<path class="st1" d="M18.8,0.2C18.8,0.2,18.9,0.2,18.8,0.2c0.1,0,0.1,0,0.1,0c0.3,0,0.5,0.2,0.6,0.4c0,0.2-0.1,0.4-0.3,0.5
	c0,0,0,0-0.1,0c0,0,0,0,0.1,0.1c0.1,0.1,0.1,0.2,0.2,0.2c0.2,0.3,0.4,0.6,0.5,1c0,0.1,0.1,0.1,0.1,0.2c0,0,0,0,0,0
	c0-0.1,0-0.2,0.1-0.4c0-0.3,0.1-0.6,0.2-0.8c0-0.1,0.1-0.3,0.2-0.4c0,0,0,0,0,0c-0.3,0-0.5-0.2-0.5-0.5c0-0.2,0.2-0.5,0.4-0.5
	c0.2,0,0.5,0.1,0.5,0.4c0,0.1,0,0.2,0,0.4c-0.1,0.2-0.2,0.3-0.4,0.3c0.1,0.6,0.3,1.1,0.5,1.7c0,0,0,0,0,0c0-0.2,0.1-0.3,0.1-0.5
	c0.1-0.2,0.2-0.4,0.3-0.6c0.1-0.1,0.1-0.2,0.2-0.3c0,0,0,0,0,0c-0.3-0.1-0.4-0.3-0.4-0.6c0-0.2,0.2-0.4,0.5-0.4
	c0.2,0,0.5,0.2,0.5,0.4c0,0.1,0,0.2-0.1,0.4c-0.1,0.2-0.2,0.2-0.4,0.2c0,0,0,0,0,0c0,0.1,0,0.1,0,0.2c0,0.1,0,0.2,0.1,0.3
	c0,0.2,0.1,0.4,0.2,0.6c0,0.1,0.1,0.2,0.1,0.4c0,0.1,0.1,0.2,0.1,0.3c0,0.1,0.1,0.2,0.1,0.3c0,0.1,0,0.1,0.1,0.2c0,0,0,0.1,0,0.1
	c0,0.1-0.1,0.1-0.1,0.1c-0.1,0.1-0.2,0.2-0.3,0.2c-0.3,0.1-0.5,0.2-0.8,0.3c-0.1,0-0.3,0.1-0.4,0.1c-0.2,0.1-0.3,0.1-0.5,0.1
	c-0.4,0.1-0.7,0.2-1.1,0.3c-0.1,0-0.3,0-0.4,0.1c-0.1,0-0.3,0-0.4,0.1c-0.2,0-0.4,0-0.5,0c-0.1,0-0.3,0-0.4,0c-0.1,0-0.1,0-0.2-0.1
	c0,0-0.1-0.1-0.1-0.1c0-0.1,0-0.1,0-0.2c0-0.1,0-0.3,0-0.4c0-0.2,0-0.3-0.1-0.5c0-0.2-0.1-0.3-0.1-0.5c-0.1-0.3-0.2-0.6-0.3-0.9
	c0,0,0,0-0.1,0c0,0,0,0-0.1,0c-0.2,0.1-0.5,0-0.6-0.2c0,0,0-0.1,0-0.1c0,0,0-0.1,0-0.1c0,0,0,0,0-0.1c0-0.3,0.2-0.5,0.4-0.5
	c0.2,0,0.5,0.1,0.5,0.3c0.1,0.2,0,0.4-0.1,0.5c0,0,0,0,0,0c0.1,0,0.2,0,0.2,0.1c0.2,0.1,0.3,0.2,0.4,0.3c0.2,0.2,0.4,0.4,0.6,0.6
	c0,0,0,0,0,0c0-0.1,0-0.2,0-0.3C18,3,18,2.9,18,2.7c0-0.2-0.1-0.3-0.1-0.5c0-0.1-0.1-0.3-0.1-0.4c0,0,0,0,0,0c-0.1,0-0.2,0.1-0.3,0
	c-0.1,0-0.2,0-0.3-0.1c-0.1-0.1-0.1-0.1-0.2-0.2c-0.1-0.2,0-0.5,0.2-0.6C17.5,0.8,17.8,0.8,18,1c0.1,0.1,0.1,0.2,0.1,0.3
	c0,0.2-0.1,0.3-0.2,0.4c0,0,0.1,0.1,0.1,0.1c0.1,0.1,0.3,0.2,0.4,0.3c0.2,0.2,0.4,0.5,0.6,0.7c0,0,0,0,0,0c0,0,0,0,0,0
	c0-0.3,0-0.7,0-1c0-0.2,0-0.4,0.1-0.6c0,0,0,0-0.1,0c-0.3,0-0.5-0.2-0.5-0.5C18.5,0.6,18.6,0.4,18.8,0.2C18.8,0.3,18.8,0.3,18.8,0.2
	z"/>
</svg>
