<?xml version="1.0" encoding="utf-8"?>
<!-- Generator: Adobe Illustrator 22.0.1, SVG Export Plug-In . SVG Version: 6.00 Build 0)  -->
<svg version="1.1" id="Capa_1" xmlns="http://www.w3.org/2000/svg" xmlns:xlink="http://www.w3.org/1999/xlink" x="0px" y="0px"
	 viewBox="0 0 441.2 441.2" style="enable-background:new 0 0 441.2 441.2;" xml:space="preserve">
<style type="text/css">
	.st0{fill:url(#SVGID_1_);}
	.st1{fill:url(#SVGID_2_);stroke:#000000;stroke-width:0.1572;stroke-miterlimit:10;}
</style>
<radialGradient id="SVGID_1_" cx="206.7604" cy="212.048" r="189.4198" gradientTransform="matrix(1 0 0 -1 0 444)" gradientUnits="userSpaceOnUse">
	<stop  offset="4.157042e-07" style="stop-color:#9788C6"/>
	<stop  offset="1" style="stop-color:#6651AA"/>
</radialGradient>
<path class="st0" d="M413,149.6c-0.8-2.2-2.5-3.9-4.8-4.9l-36.7-14.8c-2.2-11.9-11.3-21.4-22.9-24.4l-2-22.9
	c-0.3-3.4-2.5-6.2-5.7-7.3c-3.2-1-6.7-0.2-8.9,2.3l-9.5,10.4l-5.8-20.4c-1-3.6-4.1-6-7.8-6.1c-3.7-0.1-6.9,2.2-8.2,5.5L257,187.4
	c0,0-161.3,7.5-161.4,7.5c-33.1,2.1-64.4-15.7-79.8-45c-2.2-4.1-7.2-5.7-11.3-3.6c-4.1,2.2-5.7,7.2-3.6,11.3
	c13.8,26.2,38.1,44.8,66.1,51.5c-2.9,3.4-9.2,11.8-12.7,24.9c-3.9,14.3-5.4,37.2,9.2,66.2l-23.6,32.1c-1.4,1.9-2,4.2-1.5,6.6
	l10.3,56.4c0.7,4,4.2,6.9,8.3,6.9h10.6c2.5,0,4.9-1.1,6.5-3c1.6-1.9,2.2-4.5,1.8-6.9l-6.6-36.2l69.7-52.4c0.1-0.1-0.1,0.1,0,0
	c6.7-5.6,11.5-11.8,15-18.1c36.4,6.4,86,15,118,20.2l14.1,89.3c0.7,4.1,4.2,7.1,8.3,7.1h8.7c4.7,0,8.4-3.7,8.4-8.4v-90.7
	c7.9-5.4,10.8-14.4,12.7-23.3c0.1-0.3,18.7-86.6,18.7-86.6c3.6,0.6,7.1,0.9,10.7,0.9c24.7,0,47.3-14.4,59-37.8
	C413.7,154.3,413.7,151.9,413,149.6z"/>
<radialGradient id="SVGID_2_" cx="319.1259" cy="43.9388" r="50.5335" gradientTransform="matrix(0.9653 0.261 -0.261 0.9653 29.6096 -59.3803)" gradientUnits="userSpaceOnUse">
	<stop  offset="4.108136e-07" style="stop-color:#FFFF83"/>
	<stop  offset="1" style="stop-color:#FFDB2C"/>
</radialGradient>
<path class="st1" d="M336.7,24.8c0.4,0.1,0.9,0.2,1.3,0.4c0.1,0.1,0.3,0.1,0.4,0.2c4.5,1.9,6.6,7,4.7,11.5c-1.4,3.4-4.9,5.6-8.6,5.4
	c-0.5,0-0.9-0.1-1.4-0.2c0.1,0.5,0.3,1,0.3,1.4c0.2,1.7,0.4,3.5,0.5,5.2c0.3,6.4,0.3,12.7,0.1,19.1c0,1.4-0.1,2.8-0.1,4.3
	c0.1-0.1,0.2-0.2,0.2-0.3c1.3-1.7,2.5-3.4,3.9-5.1c3.1-3.8,6.4-7.5,10.1-10.7c1.8-1.6,3.7-3.1,5.9-4.2c0,0,0.1,0,0.1-0.1
	c-3.9-2.6-5-7.6-2.8-11.6c2.1-3.8,6.7-5.6,11.1-3.9c4,1.7,6.1,6,5.2,10c-0.5,2.2-1.6,3.9-3.5,5.2c-2.5,1.8-5.3,2.1-8.2,1.1
	c-2.6,9.8-4.6,19.8-5.8,29.9c0.1-0.1,0.2-0.2,0.2-0.2c2-2.2,4.1-4.3,6.3-6.2c3.1-2.7,6.3-5.1,9.9-7.1c1.8-0.9,3.6-1.7,5.5-2.1
	c0,0,0,0,0,0c-3.6-3.2-4-8.4-1.2-12c2.6-3.4,7.4-4.5,11.2-2.3c3.7,2,5.5,6.4,4.1,10.5c-0.7,2.1-2,3.7-4,4.8
	c-2.9,1.6-5.8,1.5-8.7,0.1c-0.1,0.3-0.2,0.6-0.3,0.8c-0.4,1.1-0.9,2.2-1.3,3.3c-0.6,1.7-1.2,3.4-1.7,5.1c-1.1,3.5-2,7.2-2.7,10.8
	c-0.4,2.2-0.9,4.4-1.2,6.6c-0.4,2.1-0.7,4.3-0.9,6.5c-0.3,2-0.5,4.1-0.7,6.1c-0.2,1.3-0.4,2.6-0.6,3.8c-0.1,0.8-0.5,1.3-1.1,1.7
	c-0.8,0.6-1.8,0.8-2.8,1c-2.3,0.5-4.6,0.5-6.9,0.5c-5.2-0.1-10.3-0.7-15.4-1.6c-2.3-0.4-4.7-0.8-7-1.3c-3-0.6-6-1.2-9-2
	c-6.5-1.7-13-3.3-19.4-5.5c-2.2-0.7-4.4-1.5-6.5-2.3c-2.4-0.9-4.7-1.8-7.1-2.8c-3-1.2-5.9-2.6-8.7-4.1c-2.1-1.1-4.1-2.3-6-3.8
	c-0.9-0.7-1.8-1.5-2.4-2.6c-0.5-0.7-0.6-1.5-0.3-2.4c0.4-1,0.7-2.1,1.2-3.1c0.9-2.2,2-4.4,2.9-6.7c1.2-2.8,2.3-5.7,3.3-8.6
	c1-2.8,1.9-5.6,2.8-8.5c1.6-5.1,2.6-10.3,3.4-15.5c-0.3,0-0.7,0-1,0c-0.4,0-0.7,0-1.1-0.1c-4.3-0.6-7.4-4.3-7.5-8.6
	c0-0.6,0.1-1.1,0.1-1.7c0.1-0.4,0.2-0.9,0.4-1.3c0.2-0.4,0.3-0.7,0.5-1.1c2.1-4,6.8-5.8,11-4.2c3.9,1.5,6.3,5.7,5.4,9.7
	c-0.7,3.6-2.9,5.9-6.4,7c-0.1,0-0.2,0.1-0.3,0.1c1.3,0.8,2.2,1.9,3.1,3.1c1.7,2.4,3,4.9,4.2,7.6c1.9,4.5,3.3,9.1,4.3,13.9
	c0,0.1,0.1,0.2,0.1,0.4c0.7-1.8,1.4-3.4,2.1-5.1c1-2.6,2-5.1,2.9-7.7c1-2.7,1.8-5.4,2.7-8.1c0.8-2.5,1.5-4.9,2.2-7.4
	c0.1-0.2,0.2-0.4,0.2-0.7c-1.7-0.1-3.2-0.6-4.5-1.5c-1.3-0.9-2.4-2.1-3-3.6c-0.7-1.5-1-3-0.8-4.6c0.5-4.4,4-7.6,8.3-7.9
	c4.3-0.2,8.2,2.8,9.1,7.1c0.4,2.1,0.1,4.2-1,6c-1.4,2.5-3.6,3.9-6.3,4.4c0.4,0.7,0.8,1.5,1.2,2.2c1.3,2.7,2.3,5.5,3.1,8.3
	c1.4,5.1,2.3,10.2,2.9,15.5c0,0.1,0,0.2,0,0.4c0.1-0.2,0.2-0.3,0.2-0.4c2.9-5.3,5.8-10.5,9-15.7c1.8-2.8,3.5-5.7,5.8-8.1
	c-0.3-0.1-0.5-0.2-0.8-0.3c-4.4-2-6.4-7-4.6-11.5c1.3-3.2,4.5-5.4,8-5.4C335.5,24.7,336.1,24.8,336.7,24.8z"/>
</svg>
