<?xml version="1.0" encoding="utf-8"?>
<!-- Generator: Adobe Illustrator 22.0.1, SVG Export Plug-In . SVG Version: 6.00 Build 0)  -->
<svg version="1.1" id="Capa_1" xmlns="http://www.w3.org/2000/svg" xmlns:xlink="http://www.w3.org/1999/xlink" x="0px" y="0px"
	 viewBox="0 0 505.1 505.1" style="enable-background:new 0 0 505.1 505.1;" xml:space="preserve">
<style type="text/css">
	.st0{fill:url(#SVGID_1_);}
</style>
<radialGradient id="SVGID_1_" cx="252.5445" cy="252.543" r="229.0547" gradientUnits="userSpaceOnUse">
	<stop  offset="0" style="stop-color:#80A3BE"/>
	<stop  offset="1" style="stop-color:#47799F"/>
</radialGradient>
<path class="st0" d="M488.9,418.4c-34.8-27.2-3.3-93.6-3.3-93.6c63.1-161.1-46.1-242.3-64.8-252.9c-38-21.5-128.5-42.6-174.2,15.3
	c-12.9,16.4-8.6,36.8-2.7,51c15.3,36.6,56.4,69.5,91.7,73.4c10.1,1.1,17.4-1.2,22.3-7c15.8-18.3,7.5-66.6,2.9-83.7
	c-1.2-4.6,1.5-9.4,6.2-10.7c1.3-0.4,2.7-0.3,3.9,0c3.1,0.6,5.8,2.9,6.7,6.2c1.9,7.2,18,71-6.5,99.5c-5.4,6.3-15,13.3-31,13.3
	c-2,0-4.2-0.1-6.5-0.4c-41.6-4.5-88.1-41.4-105.9-84c-4.5-10.7-6.7-21.1-6.9-30.8c-99.7,0-213.6,55.6-221,155.6
	c-0.2,3.2,1.7,6.2,4.8,7.2c3.1,1,6.4-0.2,8.1-2.9c6.1-9.6,13.8-20,21.3-26.6c1.1,15.7,5.9,30.8,14.1,44.5
	C65,319.4,73.8,351,73.8,383.1l0.2,59.3c0.8,7.3,18,13.1,39.2,13.1c21.2,0,38.3-5.8,39.2-13.1l0.2-38.5c0-10.1,4.2-19.7,11.6-26.6
	c7.4-6.9,17.3-9.6,27.4-9.6c6.3,0,19.1,0,19.8,0c9.7-0.1,19,4.3,25.9,11.2c6.9,6.8,10.8,16.1,10.8,25.8l0.2,37.7
	c0.8,7.3,18,13.1,39.2,13.1c21.2,0,38.3-5.8,39.2-13.1l0.2-33.2c0-98.6,72.3-142.6,80.8-147.8c42.6-25.9,23.7,52.6,23.7,52.6
	c-28.3,88.2,37,128.5,37,128.5l0.3-0.3c0.2,0.2,0.3,0.5,0.5,0.7c4.2,3.2,11.8,0.1,17-6.8c4.8-6.3,5.7-13.6,2.6-17.2L488.9,418.4z"/>
</svg>
