<?xml version="1.0" encoding="utf-8"?>
<!-- Generator: Adobe Illustrator 22.0.1, SVG Export Plug-In . SVG Version: 6.00 Build 0)  -->
<svg version="1.1" id="Capa_1" xmlns="http://www.w3.org/2000/svg" xmlns:xlink="http://www.w3.org/1999/xlink" x="0px" y="0px"
	 viewBox="0 0 505.1 505.1" style="enable-background:new 0 0 505.1 505.1;" xml:space="preserve">
<style type="text/css">
	.st0{fill:url(#SVGID_1_);}
	.st1{fill:url(#SVGID_2_);stroke:#000000;stroke-width:0.2471;stroke-miterlimit:10;}
</style>
<radialGradient id="SVGID_1_" cx="231.6428" cy="238.707" r="210.2746" gradientTransform="matrix(1 0 0 -1 0 508)" gradientUnits="userSpaceOnUse">
	<stop  offset="0" style="stop-color:#80A3BE"/>
	<stop  offset="1" style="stop-color:#47799F"/>
</radialGradient>
<path class="st0" d="M448.7,421.4c-31.9-25-3-85.9-3-85.9c57.9-147.9-42.3-222.4-59.5-232.1c-34.9-19.7-117.9-39.1-159.9,14
	c-11.8,15.1-7.9,33.8-2.5,46.8c14,33.6,51.8,63.8,84.2,67.4c9.3,1,16-1.1,20.5-6.4c14.5-16.8,6.9-61.1,2.7-76.8
	c-1.1-4.2,1.4-8.6,5.7-9.8c1.2-0.4,2.5-0.3,3.6,0c2.8,0.6,5.3,2.7,6.1,5.7c1.7,6.6,16.5,65.2-6,91.3c-5,5.8-13.8,12.2-28.5,12.2
	c-1.8,0-3.9-0.1-6-0.4c-38.2-4.1-80.9-38-97.2-77.1c-4.1-9.8-6.1-19.4-6.3-28.3c-91.5,0-196,51-202.8,142.8
	c-0.2,2.9,1.6,5.7,4.4,6.6s5.9-0.2,7.4-2.7c5.6-8.8,12.7-18.4,19.5-24.4c1,14.4,5.4,28.3,12.9,40.8c15.5,25.3,23.6,54.3,23.6,83.8
	l0.2,54.4c0.7,6.7,16.5,12,36,12s35.2-5.3,36-12l0.2-35.3c0-9.3,3.9-18.1,10.6-24.4c6.8-6.3,15.9-8.8,25.1-8.8c5.8,0,17.5,0,18.2,0
	c8.9-0.1,17.4,3.9,23.8,10.3c6.3,6.2,9.9,14.8,9.9,23.7l0.2,34.6c0.7,6.7,16.5,12,36,12s35.2-5.3,36-12L300,413
	c0-90.5,66.4-130.9,74.2-135.7c39.1-23.8,21.8,48.3,21.8,48.3c-26,81,34,117.9,34,117.9l0.3-0.3c0.2,0.2,0.3,0.5,0.5,0.6
	c3.9,2.9,10.8,0.1,15.6-6.2c4.4-5.8,5.2-12.5,2.4-15.8L448.7,421.4z"/>
<radialGradient id="SVGID_2_" cx="276.0035" cy="71.6027" r="79.4015" gradientTransform="matrix(0.9688 -0.2477 0.2477 0.9688 -6.4522 75.129)" gradientUnits="userSpaceOnUse">
	<stop  offset="4.108136e-07" style="stop-color:#FFFF83"/>
	<stop  offset="1" style="stop-color:#FFDB2C"/>
</radialGradient>
<path class="st1" d="M261,11.2c0.7-0.2,1.4-0.4,2.1-0.5c0.2,0,0.5,0,0.7-0.1c7.7-0.9,14.5,4.5,15.4,12.1c0.7,5.8-2.4,11.5-7.6,14
	c-0.7,0.3-1.4,0.6-2,0.9c0.5,0.6,1.1,1.1,1.6,1.7c1.6,2.2,3.2,4.4,4.7,6.7c5.4,8.4,10.2,17.2,14.9,26c1,1.9,2.1,3.9,3.2,6
	c0-0.2,0.1-0.4,0.1-0.6c0.5-3.3,0.8-6.7,1.4-10c1.2-7.6,2.9-15.2,5.5-22.5c1.3-3.6,2.7-7.1,4.8-10.3c0,0,0-0.1,0-0.2
	C298.4,34,293,28.1,292.9,21c-0.1-6.8,4.9-12.9,12.2-13.8c6.8-0.8,13,3.4,14.9,9.7c1,3.4,0.8,6.7-0.7,9.8c-2.1,4.4-5.6,7-10.3,7.9
	c4.1,15.5,9,30.6,15.2,45.4c0.1-0.2,0.1-0.4,0.1-0.5c1.1-4.5,2.3-9,3.8-13.4c2.1-6,4.6-11.9,8-17.3c1.7-2.6,3.5-5.1,6-7.1
	c0,0,0,0,0-0.1c-7.4-1.5-12-8.5-11-15.5c0.9-6.7,6.7-11.8,13.6-11.9c6.6-0.1,12.4,4.6,13.7,11.2c0.7,3.4,0.1,6.7-1.7,9.6
	c-2.7,4.4-6.7,6.6-11.8,6.8c0.1,0.5,0.2,0.9,0.2,1.4c0.3,1.9,0.5,3.7,0.8,5.6c0.5,2.8,1,5.6,1.6,8.3c1.2,5.7,2.8,11.3,4.7,16.9
	c1.1,3.3,2.2,6.7,3.4,10c1.2,3.2,2.4,6.4,3.7,9.6c1.2,3,2.5,5.9,3.7,8.9c0.8,1.9,1.4,3.8,2.2,5.7c0.5,1.1,0.4,2.2-0.1,3.2
	c-0.7,1.4-1.8,2.5-3,3.5c-2.7,2.4-5.8,4.2-9,5.9c-7.2,3.9-14.7,7-22.3,9.8c-3.5,1.3-7,2.5-10.5,3.6c-4.6,1.5-9.2,3-13.8,4.2
	c-10.2,2.7-20.4,5.5-30.8,7.5c-3.6,0.7-7.1,1.4-10.7,1.9c-3.9,0.6-7.9,1.2-11.8,1.7c-5,0.6-10,1-15,1.1c-3.7,0.1-7.5,0-11.1-0.6
	c-1.8-0.3-3.6-0.7-5.3-1.6c-1.2-0.7-2-1.6-2.3-3c-0.3-1.7-0.6-3.4-0.8-5.1c-0.4-3.8-0.7-7.6-1.2-11.3c-0.6-4.8-1.2-9.5-2-14.3
	c-0.8-4.6-1.7-9.2-2.7-13.8c-1.8-8.1-4.4-16.1-7.4-23.8c-0.4,0.2-0.9,0.6-1.4,0.8c-0.5,0.3-1.1,0.5-1.6,0.7
	c-6.4,2.4-13.5-0.1-16.9-6c-0.4-0.8-0.8-1.6-1.2-2.4c-0.2-0.7-0.4-1.4-0.5-2.1c-0.1-0.6-0.1-1.2-0.2-1.9
	c-0.2-7.2,4.8-13.1,11.9-14.2c6.4-1,12.9,2.9,15,9.1c1.8,5.5,0.6,10.3-3.4,14.5c-0.1,0.1-0.2,0.2-0.3,0.3c2.4,0.2,4.5,0.9,6.6,1.9
	c4.2,1.9,8,4.4,11.6,7.2c6.1,4.6,11.6,9.9,16.7,15.6c0.1,0.1,0.2,0.2,0.4,0.5c-0.4-3-0.7-5.8-1.1-8.6c-0.6-4.3-1.2-8.5-1.9-12.8
	c-0.8-4.4-1.6-8.8-2.5-13.1c-0.8-4-1.8-7.9-2.6-11.8c-0.1-0.3-0.1-0.7-0.2-1.1c-2.3,1.1-4.8,1.6-7.3,1.4c-2.5-0.2-4.8-1.1-6.9-2.5
	c-2.1-1.5-3.6-3.4-4.7-5.8c-2.7-6.4-0.4-13.5,5.3-17.2c5.7-3.7,13.4-2.5,17.9,2.7c2.2,2.6,3.4,5.6,3.3,9c0,4.5-1.9,8.1-5.3,10.8
	c1.1,0.7,2.2,1.4,3.3,2.2c3.9,2.6,7.3,5.7,10.6,9c5.8,5.9,11,12.3,15.9,19c0.1,0.1,0.2,0.2,0.3,0.5c0-0.3,0-0.5,0-0.7
	c-0.1-9.5-0.2-18.9,0.3-28.4c0.2-5.2,0.3-10.5,1.7-15.6c-0.4,0.1-0.9,0.2-1.4,0.2c-7.6,0.7-14.2-4.6-15.1-12.2
	c-0.7-5.4,2-10.8,6.8-13.5C259.3,12,260.1,11.6,261,11.2z"/>
</svg>
