<?xml version="1.0" encoding="utf-8"?>
<!-- Generator: Adobe Illustrator 22.0.1, SVG Export Plug-In . SVG Version: 6.00 Build 0)  -->
<svg version="1.1" id="Capa_1" xmlns="http://www.w3.org/2000/svg" xmlns:xlink="http://www.w3.org/1999/xlink" x="0px" y="0px"
	 viewBox="0 0 264.7 264.7" style="enable-background:new 0 0 264.7 264.7;" xml:space="preserve">
<style type="text/css">
	.st0{fill:url(#SVGID_1_);}
	.st1{fill:url(#SVGID_2_);stroke:#000000;stroke-width:0.1167;stroke-miterlimit:10;}
</style>
<radialGradient id="SVGID_1_" cx="132.2952" cy="133.6251" r="108.3566" gradientTransform="matrix(1 0 0 -1 0 266)" gradientUnits="userSpaceOnUse">
	<stop  offset="4.157042e-07" style="stop-color:#E796B4"/>
	<stop  offset="1" style="stop-color:#D75887"/>
</radialGradient>
<path class="st0" d="M220.2,71.4c-0.6-7.7-9.1-15.6-18-16.2c-8.8-0.6-17.4,0.3-12.1,6.5c5.3,6.2,7.1,12.1,4.4,11.2
	c-2.7-0.9-13.3-7.1-45.1-2.1c-4.1,1.2-21.2-12.7-44.5-13s-40.4,6.3-64.8,72.3c-2.4,5.8-18.9,19.4-27.7,25.9
	C3.5,162.5,0,169.8,0,182.8C0,201,25.9,210,81.6,209.7s85.2-9.4,85.2-9.4C104.1,207,7.9,210.8,7.9,181.6c0-20.6,28.3-28.5,36.3-28.2
	s13.6,12.7,33.3,5.6c3.2-0.3,1.5,4.4-1.2,7.4c-2.7,2.9-0.6,6.5,9.7,6.5s41.2,0.3,47.7,0s11.8-11.8-9.4-12.7
	c-18.5,0.3,12-5.8,15.9-21.8c0.7-3.9,8.8-4.1,15.9-4.1c20.8,0,34.5,38.2,38.9,38.3c4.4,0.1,18,1.6,17.7-4.3
	c-0.3-5.9-11.5-3.2-13.9-6.5c-2.4-3.2-10-15.5-7.4-21.1s12.7-21.2,24.5-23s42.5,7.4,47.5,0s-6.8-11.5-15.9-28.6
	C243.8,80.6,238.8,71.7,220.2,71.4z"/>
<radialGradient id="SVGID_2_" cx="213.4897" cy="49.2236" r="37.5037" gradientTransform="matrix(0.9882 0.1529 -0.1529 0.9882 10.7902 -31.2778)" gradientUnits="userSpaceOnUse">
	<stop  offset="4.108136e-07" style="stop-color:#FFFF83"/>
	<stop  offset="1" style="stop-color:#FFDB2C"/>
</radialGradient>
<path class="st1" d="M218.6,18.5c0.3,0.1,0.7,0.1,1,0.2c0.1,0,0.2,0.1,0.3,0.1c3.5,1,5.5,4.6,4.4,8.1c-0.8,2.6-3.2,4.5-5.9,4.7
	c-0.3,0-0.7,0-1,0c0.1,0.3,0.3,0.7,0.4,1c0.3,1.3,0.6,2.5,0.8,3.8c0.8,4.7,1.2,9.4,1.7,14.1c0.1,1,0.2,2.1,0.3,3.2
	c0.1-0.1,0.1-0.2,0.1-0.2c0.8-1.4,1.6-2.7,2.4-4.1c2-3.1,4.1-6,6.6-8.7c1.2-1.3,2.5-2.6,4-3.6c0,0,0,0,0.1-0.1
	c-3.1-1.6-4.3-5.2-3-8.3c1.2-2.9,4.5-4.7,7.9-3.8c3.1,0.9,5,3.9,4.7,7c-0.2,1.6-0.9,3-2.1,4.1c-1.7,1.5-3.7,2-5.9,1.5
	c-1.1,7.5-1.8,15-1.8,22.5c0.1-0.1,0.1-0.1,0.2-0.2c1.3-1.8,2.7-3.5,4.2-5.1c2-2.2,4.2-4.3,6.7-6c1.2-0.8,2.5-1.6,3.9-2c0,0,0,0,0,0
	c-2.9-2-3.6-5.9-1.9-8.8c1.7-2.8,5.1-3.9,8.1-2.6c2.9,1.2,4.6,4.3,3.9,7.4c-0.3,1.6-1.2,2.9-2.5,3.9c-2,1.4-4.1,1.6-6.4,0.8
	c-0.1,0.2-0.1,0.4-0.1,0.6c-0.2,0.9-0.5,1.7-0.7,2.6c-0.3,1.3-0.6,2.6-0.8,3.9c-0.5,2.7-0.9,5.4-1.1,8.2c-0.1,1.7-0.3,3.3-0.4,5
	c-0.1,1.6-0.1,3.2-0.2,4.8c0,1.5,0,3,0,4.6c0,1-0.1,1.9-0.1,2.9c0,0.6-0.2,1-0.7,1.4c-0.6,0.5-1.3,0.8-2,1c-1.6,0.5-3.3,0.7-5,0.9
	c-3.8,0.4-7.7,0.3-11.5,0.1c-1.8-0.1-3.5-0.2-5.3-0.4c-2.3-0.2-4.5-0.4-6.8-0.7c-4.9-0.7-9.9-1.4-14.7-2.5c-1.7-0.4-3.3-0.7-5-1.1
	c-1.8-0.5-3.6-1-5.4-1.5c-2.3-0.6-4.5-1.4-6.7-2.3c-1.6-0.7-3.2-1.4-4.7-2.3c-0.7-0.5-1.5-1-2-1.7c-0.4-0.5-0.6-1.1-0.4-1.7
	c0.2-0.8,0.4-1.6,0.6-2.4c0.5-1.7,1.1-3.4,1.6-5.2c0.6-2.2,1.2-4.4,1.8-6.6c0.5-2.2,1-4.3,1.4-6.5c0.7-3.9,1.1-7.8,1.2-11.7
	c-0.2,0-0.5,0.1-0.8,0.1c-0.3,0-0.6,0-0.8,0c-3.2-0.1-5.8-2.5-6.2-5.7c-0.1-0.4,0-0.8-0.1-1.3c0.1-0.3,0.1-0.7,0.2-1
	c0.1-0.3,0.2-0.6,0.3-0.8c1.2-3.2,4.5-4.8,7.8-4c3,0.8,5.1,3.7,4.8,6.7c-0.2,2.7-1.6,4.6-4.1,5.7c-0.1,0-0.1,0.1-0.2,0.1
	c1,0.5,1.8,1.2,2.5,2c1.5,1.6,2.7,3.4,3.7,5.3c1.8,3.1,3.2,6.5,4.3,9.9c0,0.1,0.1,0.1,0.1,0.3c0.4-1.4,0.8-2.6,1.1-3.9
	c0.5-2,1.1-3.9,1.5-5.9c0.5-2.1,0.9-4.1,1.3-6.2c0.4-1.9,0.7-3.8,1.1-5.6c0-0.2,0.1-0.3,0.1-0.5c-1.2,0.1-2.4-0.2-3.4-0.7
	c-1.1-0.6-1.9-1.4-2.5-2.4c-0.6-1-1-2.2-1-3.4c0-3.3,2.3-5.9,5.5-6.5c3.2-0.5,6.3,1.4,7.3,4.5c0.5,1.5,0.4,3.1-0.2,4.5
	c-0.9,2-2.4,3.2-4.3,3.7c0.3,0.5,0.7,1,1,1.6c1.2,1.9,2.1,3.8,2.9,5.9c1.4,3.6,2.5,7.4,3.4,11.2c0,0.1,0,0.1,0.1,0.3
	c0.1-0.1,0.1-0.2,0.1-0.3c1.7-4.1,3.4-8.3,5.4-12.3c1.1-2.2,2.1-4.5,3.6-6.4c-0.2-0.1-0.4-0.1-0.6-0.2c-3.4-1.1-5.3-4.6-4.3-8.1
	c0.7-2.5,2.9-4.3,5.4-4.6C217.7,18.6,218.2,18.6,218.6,18.5z"/>
</svg>
