<?xml version="1.0" encoding="utf-8"?>
<!-- Generator: Adobe Illustrator 22.0.1, SVG Export Plug-In . SVG Version: 6.00 Build 0)  -->
<svg version="1.1" id="Capa_1" xmlns="http://www.w3.org/2000/svg" xmlns:xlink="http://www.w3.org/1999/xlink" x="0px" y="0px"
	 viewBox="0 0 264.7 264.7" style="enable-background:new 0 0 264.7 264.7;" xml:space="preserve">
<style type="text/css">
	.st0{fill:url(#SVGID_1_);}
</style>
<radialGradient id="SVGID_1_" cx="132.3613" cy="132.3626" r="108.3842" gradientUnits="userSpaceOnUse">
	<stop  offset="4.157042e-07" style="stop-color:#E796B4"/>
	<stop  offset="1" style="stop-color:#D75887"/>
</radialGradient>
<path class="st0" d="M220.2,71.4c-0.6-7.7-9.1-15.6-18-16.2c-8.8-0.6-17.4,0.3-12.1,6.5c5.3,6.2,7.1,12.1,4.4,11.2
	c-2.7-0.9-13.3-7.1-45.1-2.1c-4.1,1.2-21.2-12.7-44.5-13c-23.3-0.3-40.4,6.3-64.8,72.3c-2.4,5.8-18.9,19.4-27.7,25.9
	C3.5,162.5,0,169.8,0,182.8c0,18.2,25.9,27.2,81.6,26.9c55.7-0.3,85.2-9.4,85.2-9.4C104.1,207,7.9,210.8,7.9,181.6
	c0-20.6,28.3-28.5,36.3-28.2c8,0.3,13.6,12.7,33.3,5.6c3.2-0.3,1.5,4.4-1.2,7.4c-2.7,2.9-0.6,6.5,9.7,6.5c10.3,0,41.2,0.3,47.7,0
	c6.5-0.3,11.8-11.8-9.4-12.7c-18.5,0.3,12-5.8,15.9-21.8c0.7-3.9,8.8-4.1,15.9-4.1c20.8,0,34.5,38.2,38.9,38.3
	c4.4,0.1,18,1.6,17.7-4.3c-0.3-5.9-11.5-3.2-13.9-6.5c-2.4-3.2-10-15.5-7.4-21.1c2.6-5.6,12.7-21.2,24.5-23
	c11.8-1.8,42.5,7.4,47.5,0c5-7.4-6.8-11.5-15.9-28.6C243.8,80.6,238.8,71.7,220.2,71.4z"/>
</svg>
