<?xml version="1.0" encoding="utf-8"?>
<!-- Generator: Adobe Illustrator 22.0.1, SVG Export Plug-In . SVG Version: 6.00 Build 0)  -->
<svg version="1.1" id="Capa_1" xmlns="http://www.w3.org/2000/svg" xmlns:xlink="http://www.w3.org/1999/xlink" x="0px" y="0px"
	 viewBox="0 0 393.7 393.7" style="enable-background:new 0 0 393.7 393.7;" xml:space="preserve">
<style type="text/css">
	.st0{fill:url(#SVGID_1_);}
	.st1{fill:url(#SVGID_2_);stroke:#000000;stroke-width:0.1913;stroke-miterlimit:10;}
</style>
<g>
	<g>
		<g>
			
				<radialGradient id="SVGID_1_" cx="175.5" cy="167.3347" r="159.8445" gradientTransform="matrix(1 0 0 -1 0 396)" gradientUnits="userSpaceOnUse">
				<stop  offset="4.157042e-07" style="stop-color:#BF7CBF"/>
				<stop  offset="1" style="stop-color:#A142A1"/>
			</radialGradient>
			<path class="st0" d="M323.7,154.4c-10.1-14.6-25.9-33.3-43.6-31.7c-3.2-4.9-13.1-20.8-21.8-36.5c-14.7,19.8-3.1,9-10,20.5
				c-0.9,2.4-1.3-10.7-18-13c-6.6-11,2.3,9.1-7,5.7c-11.6-4.4,10.3-2-23.5-4.7c18.6,45.6,21.7,59.4,21,65c-0.4,3.4-2.8,7-7.7,4
				c-17.5-8.5-57.6-16.7-72.5-16.7c-68.8,0-88.3,44.8-98.8,68.8c0,0-9.3,23.7-9.6,66.4c-8.5-8.1-16.9-18.9-22.2-18.9
				c-6.7,0-10.1,5.8-10.1,17.1s13,33.5,29.9,45c3.6,2.6,7.8,2.5,12.3-0.1c1.5-1,2.5-1.2,2.9-1.4c8,7.4,14.7,13.2,20,17
				c16.2,21.8,13.4,18.4,90.5,30.1c0,0,11.8,1.1,16.4-7.9c3.4-10-1.4-16.5-9.2-21.9c-2.1-1.5-8.2-5.1-10.6-6.1
				c40.8,4.5,71.9,9.4,76.6,12c5.4,12.3,16.3,19.6,32.7,21.8c7.8,0,13.1-3,15.9-8.9c5.4-10.7-9.5-20-17.7-26
				c-7.2-5.2-10.8-13.9-10.5-15.6c0.1-0.2,0.1-0.4,0.6-0.7c11.8-6.4,22.5-16.6,31.7-30.2c8.5-12.6,13.2-25.1,13.9-37.4
				c10.7-0.7,25.4-8.9,35.9-15.8c13-8.5,19.6-18.5,19.6-29.6C351.2,188.7,338.3,175.6,323.7,154.4z M287,172.7c-5,0-9-4-9-9s4-9,9-9
				c5,0,9,4,9,9S292,172.7,287,172.7z"/>
		</g>
	</g>
</g>
<radialGradient id="SVGID_2_" cx="261.833" cy="59.9423" r="61.4951" gradientTransform="matrix(0.9938 0.1109 -0.1109 0.9938 -1.5818 -6.4925)" gradientUnits="userSpaceOnUse">
	<stop  offset="4.108136e-07" style="stop-color:#FFFF83"/>
	<stop  offset="1" style="stop-color:#FFDB2C"/>
</radialGradient>
<path class="st1" d="M256.9,30.3c0.6,0.1,1.1,0.1,1.7,0.2c0.2,0,0.4,0.1,0.5,0.1c5.8,1.5,9.2,7.2,7.8,13c-1.1,4.4-4.9,7.6-9.3,8
	c-0.6,0.1-1.1,0-1.7,0.1c0.2,0.6,0.5,1.1,0.7,1.7c0.5,2,1.1,4.1,1.6,6.2c1.6,7.6,2.7,15.3,3.7,23c0.2,1.7,0.4,3.4,0.7,5.2
	c0.1-0.2,0.2-0.3,0.2-0.4c1.2-2.3,2.4-4.6,3.7-6.8c3-5.2,6.3-10.2,10.2-14.8c1.9-2.2,3.9-4.4,6.3-6.1c0,0,0.1-0.1,0.1-0.1
	c-5.2-2.4-7.4-8.3-5.6-13.4c1.8-4.9,7.1-8,12.6-6.7c5.1,1.2,8.5,6,8.1,11.1c-0.2,2.7-1.2,5-3.2,6.9c-2.7,2.6-6,3.5-9.6,2.9
	c-1.3,12.3-1.9,24.6-1.4,37c0.1-0.1,0.2-0.2,0.2-0.3c2-3,4.1-5.9,6.5-8.7c3.2-3.8,6.6-7.3,10.6-10.3c1.9-1.5,4-2.8,6.3-3.5
	c0,0,0,0,0,0c-5-3.2-6.3-9.4-3.7-14.2c2.5-4.6,8.1-6.7,13.1-4.9c4.8,1.8,7.8,6.7,6.9,11.9c-0.5,2.7-1.7,4.9-3.9,6.5
	c-3.2,2.5-6.7,2.9-10.4,1.7c-0.1,0.4-0.1,0.7-0.2,1.1c-0.3,1.4-0.6,2.8-0.9,4.3c-0.4,2.2-0.8,4.3-1.1,6.5c-0.7,4.5-1,9-1.2,13.5
	c-0.1,2.7-0.2,5.4-0.2,8.2c0,2.6,0,5.3,0.1,7.9c0.1,2.5,0.2,5,0.2,7.5c0,1.6,0,3.2,0,4.7c0,0.9-0.3,1.7-1,2.3
	c-0.9,0.8-2,1.3-3.1,1.7c-2.6,1-5.4,1.5-8.2,1.8c-6.2,0.8-12.5,1-18.8,1c-2.9,0-5.8-0.1-8.6-0.2c-3.7-0.2-7.5-0.3-11.2-0.7
	c-8.1-0.9-16.3-1.6-24.3-3c-2.8-0.5-5.5-1-8.3-1.5c-3-0.6-6-1.3-9-2c-3.8-0.9-7.5-2-11.2-3.3c-2.7-1-5.4-2-7.9-3.5
	c-1.3-0.7-2.4-1.5-3.4-2.6c-0.7-0.8-1-1.7-0.8-2.8c0.3-1.3,0.5-2.6,0.8-3.9c0.7-2.9,1.5-5.7,2.2-8.6c0.9-3.6,1.7-7.2,2.4-10.9
	c0.7-3.6,1.3-7.2,1.8-10.7c0.9-6.4,1.2-12.8,1.2-19.3c-0.4,0.1-0.8,0.2-1.2,0.2c-0.4,0.1-0.9,0.1-1.4,0.1c-5.3,0-9.7-3.8-10.6-9
	c-0.1-0.7-0.1-1.4-0.2-2.1c0.1-0.6,0.1-1.1,0.2-1.7c0.1-0.5,0.2-0.9,0.4-1.4c1.8-5.3,7.1-8.2,12.5-7.1c4.9,1.1,8.6,5.6,8.4,10.7
	c-0.2,4.4-2.4,7.6-6.4,9.6c-0.1,0-0.2,0.1-0.3,0.2c1.7,0.8,3,1.9,4.3,3.2c2.5,2.5,4.6,5.4,6.5,8.4c3.1,5,5.7,10.4,7.8,15.9
	c0,0.1,0.1,0.2,0.2,0.4c0.5-2.2,1.1-4.4,1.6-6.5c0.7-3.3,1.5-6.5,2.1-9.8c0.7-3.4,1.2-6.8,1.8-10.2c0.5-3.1,0.9-6.2,1.3-9.3
	c0-0.3,0.1-0.5,0.2-0.8c-2,0.2-3.9-0.1-5.7-1c-1.8-0.8-3.2-2.1-4.3-3.7c-1.1-1.6-1.7-3.5-1.8-5.4c-0.2-5.4,3.4-9.9,8.5-11
	c5.2-1.1,10.4,1.8,12.2,6.8c0.9,2.5,0.9,5-0.1,7.5c-1.3,3.3-3.6,5.4-6.8,6.4c0.6,0.8,1.2,1.6,1.8,2.5c2.1,3,3.8,6.2,5.2,9.5
	c2.6,5.8,4.6,11.9,6.3,18.1c0,0.1,0.1,0.2,0.1,0.4c0.1-0.2,0.1-0.4,0.2-0.5c2.5-6.9,5.1-13.8,8-20.5c1.6-3.7,3.1-7.5,5.5-10.8
	c-0.3-0.1-0.7-0.1-1-0.2c-5.7-1.6-9-7.2-7.6-13c1-4.1,4.4-7.3,8.6-7.9C255.5,30.3,256.2,30.3,256.9,30.3z"/>
</svg>
