<?xml version="1.0" encoding="utf-8"?>
<!-- Generator: Adobe Illustrator 22.0.1, SVG Export Plug-In . SVG Version: 6.00 Build 0)  -->
<svg version="1.1" id="Capa_1" xmlns="http://www.w3.org/2000/svg" xmlns:xlink="http://www.w3.org/1999/xlink" x="0px" y="0px"
	 viewBox="0 0 393.7 393.7" style="enable-background:new 0 0 393.7 393.7;" xml:space="preserve">
<style type="text/css">
	.st0{fill:url(#SVGID_1_);}
</style>
<g>
	<g>
		<g>
			<radialGradient id="SVGID_1_" cx="196.8665" cy="196.8668" r="185.8619" gradientUnits="userSpaceOnUse">
				<stop  offset="4.157042e-07" style="stop-color:#BF7CBF"/>
				<stop  offset="1" style="stop-color:#A142A1"/>
			</radialGradient>
			<path class="st0" d="M363,128.1c-11.3-16.4-29-37.3-48.9-35.6c-3.6-5.5-14.7-23.3-24.4-40.9c-10.5-20.4-32.2-37.3-39.9-24.4
				c-1,2.7-1.5,9.9,8.5,32.8c-7.4-12.3-15.7-24.4-26.1-28.3c-13-4.9-21.9,1.9-8.1,29.4c20.9,51.1,24.3,66.6,23.6,72.9
				c-0.4,3.8-3.1,7.8-8.6,4.5c-19.6-9.5-64.6-18.7-81.3-18.7c-77.2,0-99,50.2-110.8,77.2c0,0-10.4,26.6-10.8,74.5
				c-9.5-9.1-18.9-21.2-24.9-21.2c-7.5,0-11.3,6.5-11.3,19.2c0,12.7,14.6,37.6,33.5,50.5c4,2.9,8.8,2.8,13.8-0.1
				c1.7-1.1,2.8-1.4,3.3-1.6c9,8.3,16.5,14.8,22.4,19.1c18.2,24.5,15,20.6,101.5,33.7c0,0,13.2,1.2,18.4-8.9
				c3.8-11.2-1.6-18.5-10.3-24.6c-2.4-1.7-9.2-5.7-11.9-6.8c45.8,5.1,80.6,10.5,85.9,13.5c6,13.8,18.3,22,36.7,24.5
				c8.7,0,14.7-3.4,17.8-10c6.1-12-10.7-22.4-19.8-29.2c-8.1-5.8-12.1-15.6-11.8-17.5c0.1-0.2,0.1-0.5,0.7-0.8
				c13.2-7.2,25.2-18.6,35.5-33.9c9.5-14.1,14.8-28.1,15.6-41.9c12-0.8,28.5-10,40.3-17.7c14.6-9.5,22-20.7,22-33.2
				C393.8,166.6,379.4,151.9,363,128.1z M321.8,148.6c-5.6,0-10.1-4.5-10.1-10.1c0-5.6,4.5-10.1,10.1-10.1c5.6,0,10.1,4.5,10.1,10.1
				C331.9,144.1,327.4,148.6,321.8,148.6z"/>
		</g>
	</g>
</g>
</svg>
