<?xml version="1.0" encoding="utf-8"?>
<!-- Generator: Adobe Illustrator 22.0.1, SVG Export Plug-In . SVG Version: 6.00 Build 0)  -->
<svg version="1.1" id="Capa_1" xmlns="http://www.w3.org/2000/svg" xmlns:xlink="http://www.w3.org/1999/xlink" x="0px" y="0px"
	 viewBox="0 0 46 46" style="enable-background:new 0 0 46 46;" xml:space="preserve">
<style type="text/css">
	.st0{fill:url(#SVGID_1_);}
	.st1{fill:url(#SVGID_2_);stroke:#000000;stroke-width:1.290268e-02;stroke-miterlimit:10;}
</style>
<g>
	<g>
		
			<radialGradient id="SVGID_1_" cx="22.4517" cy="24.5234" r="22.3057" gradientTransform="matrix(1 0 0 -1 0 48)" gradientUnits="userSpaceOnUse">
			<stop  offset="1.662817e-06" style="stop-color:#8EDB8E"/>
			<stop  offset="1" style="stop-color:#51C651"/>
		</radialGradient>
		<path class="st0" d="M44.1,15.9c-2.7-2.1-7.2-4-13.6-1.5c-1.1-1.2-2.2-2.1-3.6-2.7c0.5-1.1,0.7-2.2,0.7-3.6c0-3.9-2.3-7-5.2-7l0,0
			l0,0c-2.8,0-5.2,3.1-5.2,7c0,1.3,0.3,2.5,0.7,3.6c-1.3,0.7-2.5,1.6-3.6,2.7c-6.3-2.5-10.8-0.8-13.6,1.5C0.2,16.3,0,17,0.2,17.7
			c0.2,0.6,0.8,1,1.5,1c3.1-0.1,6.5,1.1,9.1,2.1c-0.6,2-1,4.1-1,6.3c0,3.8,1,7.4,2.6,10.3c-1.9,2.3-2.4,4.9-2.5,6.9
			c0,0.7,0.4,1.3,1,1.5c0.6,0.2,1.3,0.1,1.8-0.5c1.2-1.4,2.6-2.5,4.1-3.4c1.7,1.1,3.6,1.8,5.6,1.8c2.1,0,3.9-0.7,5.6-1.8
			c1.6,1,3,2.1,4.1,3.4c0.4,0.5,1.1,0.7,1.8,0.5c0.6-0.2,1-0.9,1-1.5c-0.1-2.1-0.8-4.7-2.5-6.9c1.7-2.8,2.6-6.3,2.6-10.3
			c0-2.2-0.4-4.4-1-6.3c2.5-1.1,6-2.2,9.1-2.1c0.7,0,1.3-0.4,1.5-1C44.7,17,44.6,16.3,44.1,15.9z"/>
	</g>
</g>
<radialGradient id="SVGID_2_" cx="8.3316" cy="-11.2387" r="4.1467" gradientTransform="matrix(0.5803 0.8144 -0.8144 0.5803 12.949 8.2087)" gradientUnits="userSpaceOnUse">
	<stop  offset="4.108136e-07" style="stop-color:#FFFF83"/>
	<stop  offset="1" style="stop-color:#FFDB2C"/>
</radialGradient>
<path class="st1" d="M29.8,6.4C29.8,6.4,29.8,6.4,29.8,6.4c0.1,0.1,0.1,0.1,0.1,0.1c0.2,0.4,0.1,0.8-0.3,1c-0.3,0.1-0.6,0.1-0.8-0.1
	c0,0-0.1-0.1-0.1-0.1c0,0,0,0.1-0.1,0.1c-0.1,0.1-0.2,0.2-0.2,0.4c-0.3,0.4-0.6,0.8-1,1.2c-0.1,0.1-0.2,0.2-0.2,0.3c0,0,0,0,0,0
	c0.2,0,0.3-0.1,0.5-0.1C28.1,9,28.5,9,28.9,9c0.2,0,0.4,0,0.6,0c0,0,0,0,0,0c-0.1-0.4,0.1-0.7,0.4-0.9c0.3-0.1,0.7,0,0.9,0.3
	c0.2,0.3,0.1,0.7-0.2,0.9c-0.1,0.1-0.3,0.2-0.5,0.2c-0.3,0-0.4-0.1-0.6-0.4c-0.7,0.5-1.3,1-1.9,1.6c0,0,0,0,0,0
	c0.2,0,0.5-0.1,0.7-0.1c0.3,0,0.7,0,1,0.1c0.2,0,0.3,0.1,0.5,0.2c0,0,0,0,0,0c-0.1-0.4,0.2-0.7,0.5-0.8c0.3-0.1,0.7,0.1,0.8,0.4
	c0.1,0.3,0,0.7-0.3,0.9c-0.2,0.1-0.3,0.1-0.5,0.1c-0.3,0-0.4-0.2-0.6-0.4c0,0,0,0-0.1,0c-0.1,0-0.2,0.1-0.3,0.1
	c-0.1,0.1-0.3,0.2-0.4,0.2c-0.3,0.2-0.5,0.4-0.7,0.5c-0.1,0.1-0.3,0.2-0.4,0.4c-0.1,0.1-0.3,0.2-0.4,0.4c-0.1,0.1-0.2,0.2-0.4,0.3
	c-0.1,0.1-0.2,0.1-0.2,0.2c0,0-0.1,0.1-0.2,0.1c-0.1,0-0.2,0-0.2-0.1c-0.2-0.1-0.3-0.2-0.5-0.3c-0.3-0.3-0.6-0.6-0.9-0.9
	c-0.1-0.1-0.3-0.3-0.4-0.4c-0.2-0.2-0.3-0.4-0.5-0.6c-0.3-0.4-0.7-0.9-0.9-1.4c-0.1-0.2-0.2-0.3-0.3-0.5C23.1,9,23,8.8,22.9,8.6
	c-0.1-0.2-0.2-0.5-0.3-0.7c-0.1-0.2-0.1-0.4-0.2-0.6c0-0.1,0-0.2,0-0.3c0-0.1,0-0.1,0.1-0.2c0.1,0,0.2-0.1,0.2-0.1
	c0.2-0.1,0.4-0.2,0.5-0.3c0.2-0.1,0.4-0.2,0.7-0.4c0.2-0.1,0.4-0.3,0.6-0.4c0.4-0.2,0.7-0.5,1-0.8c0,0,0,0-0.1-0.1c0,0,0,0-0.1-0.1
	c-0.2-0.3-0.2-0.7,0-0.9c0,0,0.1-0.1,0.1-0.1c0,0,0.1,0,0.1-0.1c0,0,0.1,0,0.1,0c0.3-0.1,0.7,0,0.9,0.3c0.2,0.3,0.1,0.7-0.2,0.9
	c-0.2,0.2-0.5,0.2-0.8,0.1c0,0,0,0,0,0c0,0.1,0,0.2,0,0.4c0,0.2-0.1,0.5-0.1,0.7c-0.1,0.4-0.3,0.7-0.4,1.1c0,0,0,0,0,0
	c0.1-0.1,0.3-0.1,0.4-0.2c0.2-0.1,0.4-0.2,0.6-0.3c0.2-0.1,0.4-0.2,0.6-0.4C26.8,6.1,27,6,27.1,5.9c0,0,0,0,0,0
	C27.1,5.8,27,5.7,27,5.5c0-0.1,0-0.3,0-0.4c0-0.1,0.1-0.2,0.2-0.3c0.3-0.3,0.7-0.3,0.9-0.1c0.3,0.2,0.4,0.6,0.2,0.9
	c-0.1,0.2-0.2,0.3-0.4,0.3c-0.2,0.1-0.4,0.1-0.6-0.1c0,0.1,0,0.1,0,0.2c-0.1,0.2-0.1,0.5-0.2,0.7c-0.2,0.4-0.4,0.8-0.6,1.1
	c0,0,0,0,0,0c0,0,0,0,0,0c0.5-0.2,0.9-0.4,1.4-0.5c0.3-0.1,0.5-0.2,0.8-0.2c0,0,0,0,0-0.1c-0.2-0.4,0-0.8,0.3-1
	c0.3-0.1,0.6-0.1,0.8,0.1C29.7,6.3,29.7,6.4,29.8,6.4z"/>
</svg>
