<?xml version="1.0" encoding="utf-8"?>
<!-- Generator: Adobe Illustrator 22.0.1, SVG Export Plug-In . SVG Version: 6.00 Build 0)  -->
<svg version="1.1" id="Capa_1" xmlns="http://www.w3.org/2000/svg" xmlns:xlink="http://www.w3.org/1999/xlink" x="0px" y="0px"
	 viewBox="0 0 46 46" style="enable-background:new 0 0 46 46;" xml:space="preserve">
<style type="text/css">
	.st0{fill:url(#SVGID_1_);}
</style>
<g>
	<g>
		<radialGradient id="SVGID_1_" cx="22.9794" cy="22.9798" r="22.8495" gradientUnits="userSpaceOnUse">
			<stop  offset="1.662817e-06" style="stop-color:#8EDB8E"/>
			<stop  offset="1" style="stop-color:#51C651"/>
		</radialGradient>
		<path class="st0" d="M45.1,15.2c-2.8-2.2-7.4-4.1-13.9-1.5c-1.1-1.2-2.3-2.1-3.7-2.8c0.5-1.1,0.7-2.3,0.7-3.7c0-4-2.4-7.2-5.3-7.2
			l0,0l0,0c-2.9,0-5.3,3.2-5.3,7.2c0,1.3,0.3,2.6,0.7,3.7c-1.3,0.7-2.6,1.6-3.7,2.8c-6.5-2.6-11.1-0.8-13.9,1.5
			c-0.5,0.4-0.7,1.1-0.5,1.8c0.2,0.6,0.8,1,1.5,1c3.2-0.1,6.7,1.1,9.3,2.2c-0.6,2-1,4.2-1,6.5c0,3.9,1,7.6,2.7,10.5
			c-1.9,2.4-2.5,5-2.6,7.1c0,0.7,0.4,1.3,1,1.5c0.6,0.2,1.3,0.1,1.8-0.5c1.2-1.4,2.7-2.6,4.2-3.5c1.7,1.1,3.7,1.8,5.7,1.8
			c2.1,0,4-0.7,5.7-1.8c1.6,1,3.1,2.2,4.2,3.5c0.4,0.5,1.1,0.7,1.8,0.5c0.6-0.2,1-0.9,1-1.5c-0.1-2.2-0.8-4.8-2.6-7.1
			c1.7-2.9,2.7-6.5,2.7-10.5c0-2.3-0.4-4.5-1-6.5c2.6-1.1,6.1-2.3,9.3-2.2c0.7,0,1.3-0.4,1.5-1C45.8,16.3,45.6,15.6,45.1,15.2z"/>
	</g>
</g>
</svg>
